<?xml version="1.0" standalone="no"?>
<!DOCTYPE svg PUBLIC "-//W3C//DTD SVG 20010904//EN"
 "http://www.w3.org/TR/2001/REC-SVG-20010904/DTD/svg10.dtd">
<svg version="1.0" xmlns="http://www.w3.org/2000/svg"
 width="639" height="212" viewBox="0 0 639 212"
 preserveAspectRatio="xMidYMid meet">

<g transform="translate(0,212) scale(0.1,-0.1)"
fill="#000000" stroke="none">
<path d="M3163 2109 c-13 -5 -23 -10 -23 -12 0 -45 -60 -273 -130 -497 -76
-240 -184 -611 -220 -753 -30 -121 -31 -129 -15 -153 12 -18 23 -24 42 -22 23
3 27 11 50 98 40 156 240 829 279 940 3 8 20 -35 38 -95 36 -126 89 -216 146
-246 74 -40 184 -11 274 72 26 23 46 37 46 32 0 -6 -11 -65 -25 -131 -30 -146
-34 -295 -9 -348 18 -37 58 -64 96 -64 30 0 121 53 146 85 11 14 22 25 25 25
2 0 7 -21 10 -47 8 -77 66 -97 125 -44 41 38 40 45 -2 37 -20 -4 -37 -2 -41 4
-9 15 10 104 57 264 45 151 44 171 -7 171 -26 0 -33 -9 -84 -110 -91 -179
-192 -298 -238 -281 -46 18 44 518 117 655 101 188 143 299 124 329 -14 22
-51 27 -70 11 -17 -14 -98 -173 -133 -259 -14 -36 -52 -92 -105 -154 -125
-146 -207 -197 -261 -162 -47 31 -90 132 -125 296 -7 30 -14 117 -16 193 -2
76 -6 142 -9 148 -12 18 -40 27 -62 18z"/>
<path d="M465 1976 c-13 -13 -35 -46 -49 -75 -21 -40 -36 -56 -74 -75 -135
-68 -211 -154 -212 -237 0 -42 55 -159 76 -159 10 0 11 6 4 26 -6 14 -10 53
-10 86 0 61 1 62 49 109 55 53 97 80 89 58 -3 -8 -31 -92 -63 -188 -37 -109
-65 -175 -74 -178 -57 -19 -155 -70 -167 -87 -23 -34 -18 -75 12 -86 33 -13
31 -13 37 9 4 18 92 59 103 49 5 -6 -67 -304 -86 -354 -6 -16 -23 -46 -37 -67
-24 -35 -25 -39 -11 -54 24 -24 61 -9 92 37 31 47 59 132 111 334 l39 148 44
19 c52 23 335 93 446 111 85 13 100 26 70 60 -17 19 -26 20 -104 14 -90 -6
-306 -46 -377 -70 -31 -11 -43 -11 -43 -3 0 6 28 93 62 193 l63 182 115 41
c165 59 420 109 420 81 0 -6 10 -10 23 -8 17 2 22 10 22 33 0 25 -7 33 -37 48
-35 17 -43 17 -156 3 -66 -9 -159 -28 -208 -42 -49 -14 -97 -29 -106 -31 -17
-5 -17 -3 -2 32 8 21 13 44 10 51 -8 22 -44 17 -71 -10z"/>
<path d="M5482 1968 c-11 -15 -241 -485 -262 -536 -12 -30 -15 -32 -44 -25
-72 18 -149 0 -191 -47 -15 -16 -17 -25 -9 -38 13 -20 62 -28 77 -13 8 8 5 11
-8 11 -17 0 -18 2 -5 10 24 15 107 12 123 -5 13 -13 13 -23 3 -69 -16 -67 -34
-96 -102 -161 -56 -55 -136 -100 -159 -91 -24 9 -23 135 1 192 20 47 18 81 -5
89 -32 10 -45 -4 -88 -93 -22 -48 -55 -106 -71 -129 -36 -49 -108 -101 -152
-110 l-32 -6 7 49 c4 27 25 117 46 199 42 161 47 216 25 235 -36 29 -58 8
-164 -148 -57 -84 -105 -152 -107 -150 -1 2 3 44 10 93 15 104 11 140 -19 160
-31 22 -51 18 -90 -15 -47 -42 -92 -113 -155 -248 -57 -121 -62 -157 -21 -157
21 0 33 17 95 142 64 130 98 183 115 183 11 0 -25 -283 -41 -328 -12 -32 6
-64 33 -60 15 2 55 55 136 181 63 98 116 176 118 174 2 -2 -7 -44 -21 -93 -32
-115 -42 -217 -25 -249 17 -31 61 -49 104 -41 42 8 143 72 178 114 26 31 27
32 33 9 13 -41 56 -77 92 -77 41 0 112 35 178 88 l49 40 16 -47 c27 -83 80
-91 165 -26 l46 36 20 -25 c69 -88 197 -3 336 224 34 57 63 100 63 95 0 -14
-58 -203 -65 -215 -4 -6 -24 -19 -45 -30 -22 -11 -45 -30 -51 -42 -10 -18 -8
-24 11 -40 13 -11 30 -16 38 -13 8 3 21 -3 29 -15 24 -35 62 -22 103 33 39 52
50 55 126 32 109 -32 247 -147 319 -264 20 -34 45 -66 56 -71 29 -16 55 3 63
47 15 91 -2 157 -24 97 l-11 -27 -28 44 c-46 73 -155 165 -254 214 -49 25 -99
45 -111 45 -11 0 -27 4 -35 9 -18 11 7 48 93 141 130 140 186 220 186 266 0
41 -30 62 -65 46 -34 -16 -110 -111 -199 -250 -43 -67 -81 -121 -83 -119 -8 9
138 431 181 523 49 104 55 146 23 152 -28 5 -46 -16 -86 -98 -75 -153 -345
-599 -402 -664 -35 -40 -84 -76 -104 -76 -15 0 -2 57 25 107 17 31 28 64 25
74 -4 11 18 52 60 115 36 53 68 109 71 123 6 31 -15 55 -43 49 -26 -5 -86 -89
-149 -213 -91 -176 -173 -279 -206 -259 -20 13 2 156 48 314 20 67 80 201 185
416 43 89 79 173 79 187 0 33 -37 49 -58 25z"/>
<path d="M4124 1710 c-39 -9 -101 -46 -113 -67 -11 -21 -3 -50 16 -57 8 -3 26
3 39 13 14 11 63 29 109 42 86 22 103 37 73 67 -13 13 -75 14 -124 2z"/>
<path d="M1903 1580 c-35 -14 -56 -55 -49 -92 6 -30 50 -88 67 -88 4 0 10 18
14 40 4 22 11 40 16 40 17 0 63 -27 83 -49 11 -12 27 -21 37 -21 15 0 17 5 12
33 -8 43 -26 78 -55 103 -46 43 -80 52 -125 34z"/>
<path d="M2500 1368 c-181 -38 -358 -82 -375 -92 -11 -7 -41 -20 -67 -30 -30
-11 -61 -33 -82 -58 -34 -39 -66 -112 -66 -149 0 -27 -28 -49 -64 -49 l-33 0
19 40 c43 87 30 158 -26 132 -21 -9 -95 -123 -127 -194 -13 -30 -39 -38 -39
-13 0 8 11 63 25 121 30 128 30 134 4 168 -30 38 -57 33 -115 -25 l-51 -51 -5
47 c-6 52 -31 85 -63 85 -30 0 -47 -21 -96 -120 -32 -63 -61 -104 -116 -159
-40 -41 -76 -72 -78 -69 -3 2 4 30 15 61 49 139 3 319 -64 251 -9 -8 -16 -19
-16 -23 0 -5 -20 -6 -45 -4 -37 5 -52 1 -92 -25 -56 -36 -100 -81 -134 -137
l-24 -40 -6 64 c-6 58 -10 68 -42 98 -26 23 -46 33 -69 33 -89 -1 -195 -93
-259 -226 -42 -87 -47 -115 -24 -134 21 -17 29 -8 70 75 62 127 176 231 224
205 30 -15 32 -35 21 -170 -11 -130 -6 -150 31 -150 11 0 28 14 38 30 l18 31
18 -28 c29 -43 46 -52 103 -53 55 0 113 19 144 47 12 10 37 17 66 17 39 1 57
8 100 39 62 46 128 122 171 197 17 30 31 50 31 44 0 -27 -35 -124 -62 -171
-30 -54 -31 -86 -3 -97 23 -8 39 2 60 37 22 38 170 223 186 233 7 4 9 0 5 -12
-39 -129 -47 -222 -22 -262 4 -6 -5 -35 -20 -64 -62 -122 -95 -242 -134 -485
-37 -230 -23 -336 43 -319 31 7 27 -7 77 251 72 369 138 593 181 616 11 5 54
17 96 25 72 13 78 13 87 -3 80 -143 360 -80 408 92 15 54 -3 137 -41 190 l-30
41 172 38 c217 47 237 53 237 75 0 41 -57 51 -160 29z m-404 -222 c-7 -29 -59
-91 -88 -107 -18 -10 -19 -8 -13 13 16 54 40 91 69 109 35 21 41 19 32 -15z
m-1042 -89 c-7 -92 -8 -97 -40 -128 -27 -27 -43 -33 -89 -37 -51 -4 -55 -3
-55 17 0 39 42 105 113 178 39 40 72 71 74 69 2 -2 1 -46 -3 -99z m1166 71
c27 -45 27 -117 -1 -152 -45 -57 -166 -87 -214 -52 -18 13 -17 15 16 31 77 40
138 110 154 178 9 36 21 34 45 -5z"/>
</g>
</svg>
